:version 1.10
:name ASF
:units
  mass 1
  length 1
  angle deg
:documentation
  ASF file generated by Kaydara
:root
  axis xyz
  order  tx ty tz rx ry rz
  position 0 0 0
  orientation 0 0 0
:bonedata
  begin
    id 1
    name abdomenDummy
    direction 1 -1.27917e-005 -1.26829e-007
    length 1.79048
    axis 0 0 0 xyz
  end
  begin
    id 2
    name abdomen
    direction 0.987238 0.159249 -9.68575e-008
    length 8.61378
    axis 2.73208e-005 5.54953e-006 9.16328 xyz
    dof rx ry rz
  end
  begin
    id 3
    name chest
    direction 0 0 0
    length 0
    axis 2.65071e-005 8.63688e-006 2.59796 xyz
    dof rx ry rz
  end
  begin
    id 4
    name neckDummyDummy
    direction 0.998972 0.0453274 -1.50742e-007
    length 9.56202
    axis 2.65071e-005 8.63688e-006 2.59796 xyz
  end
  begin
    id 5
    name neckDummy
    direction 0.99977 0.0214525 -1.61748e-007
    length 1.93574
    axis 2.62932e-005 9.26758e-006 1.22924 xyz
    dof rx ry rz
  end
  begin
    id 6
    name neck
    direction 0.99928 -0.0379406 -1.88707e-007
    length 3.70367
    axis 2.56966e-005 1.08122e-005 -2.17436 xyz
    dof rx ry rz
  end
  begin
    id 7
    name head
    direction 0.992648 -0.121037 -2.25408e-007
    length 6.35158
    axis 2.47068e-005 1.29149e-005 -6.95196 xyz
    dof rx ry rz
  end
  begin
    id 8
    name figureHair
    direction -0.86681 -0.498639 -7.83376e-008
    length 8.29884
    axis -2.7515e-005 4.48842e-006 -150.09 xyz
    dof rx ry rz
  end
  begin
    id 9
    name lCollarDummy
    direction 0.994611 0.0451299 -0.0933417
    length 9.60395
    axis 2.65071e-005 8.63688e-006 2.59796 xyz
  end
  begin
    id 10
    name lCollar
    direction 0.0384146 0.00127577 -0.999261
    length 6.95318
    axis 90.4899 87.7973 1.90202 xyz
    dof rx ry rz
  end
  begin
    id 11
    name lShldr
    direction -0.030648 0.0920515 -0.995282
    length 9.61158
    axis -161.793 84.4324 108.415 xyz
    dof rx ry rz
  end
  begin
    id 12
    name lForeArm
    direction 0.000163956 -0.0977586 -0.99521
    length 8.6068
    axis 0.134773 84.3899 -89.8525 xyz
    dof rx ry rz
  end
  begin
    id 13
    name lHand
    direction -0.0190533 -0.1444 -0.989336
    length 7.61479
    axis -7.3729 81.6249 -97.517 xyz
    dof rx ry rz
  end
  begin
    id 14
    name rCollarDummy
    direction 0.994871 0.0442627 0.0909555
    length 9.60761
    axis 2.65071e-005 8.63688e-006 2.59796 xyz
  end
  begin
    id 15
    name rCollar
    direction 0.0334251 -4.74072e-007 0.999441
    length 6.97058
    axis -178.152 -88.0845 -0.000674207 xyz
    dof rx ry rz
  end
  begin
    id 16
    name rShldr
    direction -0.026922 0.0719509 0.997045
    length 9.60913
    axis 71.2822 -85.594 110.514 xyz
    dof rx ry rz
  end
  begin
    id 17
    name rForeArm
    direction 0.00134679 -0.118986 0.992895
    length 8.57176
    axis -88.7923 -83.1659 -89.3516 xyz
    dof rx ry rz
  end
  begin
    id 18
    name rHand
    direction -0.0185183 -0.0768601 0.99687
    length 7.69687
    axis -74.5596 -85.4655 -103.546 xyz
    dof rx ry rz
  end
  begin
    id 19
    name lThighDummy
    direction -0.236086 -0.0385456 -0.970967
    length 4.99155
    axis 0 0 0 xyz
  end
  begin
    id 20
    name lThigh
    direction -0.993968 0.0148998 -0.108653
    length 13.572
    axis -91.4001 6.23768 179.141 xyz
    dof rx ry rz
  end
  begin
    id 21
    name lShin
    direction -0.992341 0.0904576 -0.0841193
    length 18.5862
    axis -91.4558 4.82538 174.792 xyz
    dof rx ry rz
  end
  begin
    id 22
    name lFoot
    direction 0.0209381 -0.999771 -0.00453005
    length 8.44474
    axis 4.86759 0.259522 -88.8001 xyz
    dof rx ry rz
  end
  begin
    id 23
    name rThighDummy
    direction -0.236086 -0.0385456 0.970967
    length 4.99155
    axis 0 0 0 xyz
  end
  begin
    id 24
    name rThigh
    direction -0.993968 0.0148995 0.108653
    length 13.5721
    axis -89.7059 -6.2377 179.141 xyz
    dof rx ry rz
  end
  begin
    id 25
    name rShin
    direction -0.9925 0.0899962 0.0827255
    length 18.6716
    axis -89.2745 -4.74775 174.819 xyz
    dof rx ry rz
  end
  begin
    id 26
    name rFoot
    direction 0.0301721 -0.999545 9.70865e-005
    length 8.45013
    axis -2.50066e-005 -0.00555246 -88.271 xyz
    dof rx ry rz
  end
:hierarchy
  begin
    root abdomenDummy lThighDummy rThighDummy
    abdomenDummy abdomen
    abdomen chest
    chest neckDummyDummy lCollarDummy rCollarDummy
    neckDummyDummy neckDummy
    neckDummy neck
    neck head
    head figureHair
    lCollarDummy lCollar
    lCollar lShldr
    lShldr lForeArm
    lForeArm lHand
    rCollarDummy rCollar
    rCollar rShldr
    rShldr rForeArm
    rForeArm rHand
    lThighDummy lThigh
    lThigh lShin
    lShin lFoot
    rThighDummy rThigh
    rThigh rShin
    rShin rFoot
  end

:SAMPLES-PER-SECOND 25
:FULLY-SPECIFIED
:DEGREES
583
root  3.89978 37.0537 -1.54947 175.104 0.183167 91.7442
abdomen  -0.523879 -4.98472 3.32036
chest  0.122242 -0.052997 -6.68857
neckDummy  9.09964e-021 0 8.72668e-016
neck  8.1498 9.72631 1.47024
head  5.03872 -1.67204 -6.58905
figureHair  0 1.51661e-021 -9.5315e-016
lCollar  -5.15695e-016 -6.42944e-016 -7.59357e-014
lShldr  -15.8548 9.16681 -33.8067
lForeArm  26.6512 -57.228 1.84791
lHand  0.254698 0.195082 5.2986
rCollar  1.7976e-016 -5.12864e-014 1.62755e-015
rShldr  27.6593 23.2733 8.01529
rForeArm  4.72645 -0.366571 96.3065
rHand  1.80177 -11.6521 -10.6991
lThigh  -6.80155 -2.49651 -0.581783
lShin  -13.0858 0.581592 -5.23996
lFoot  5.06109 -0.452978 -2.49024
rThigh  9.04561 -6.53294 -1.33097
rShin  1.38259 4.16684 2.84033
rFoot  -2.95472 -0.0937953 -4.13032
584
root  3.97861 37.0474 -1.46011 173.783 0.232346 91.3786
abdomen  -0.578145 -6.37953 3.01465
chest  0.411578 1.20531 -7.00287
neckDummy  9.09964e-021 0 8.72668e-016
neck  8.11415 9.20589 1.45002
head  5.16083 -1.17679 -6.69506
figureHair  0 1.51661e-021 -9.5315e-016
lCollar  -5.15695e-016 -6.42944e-016 -7.59357e-014
lShldr  -15.7754 8.59795 -37.573
lForeArm  25.9541 -66.8818 4.72055
lHand  0.254698 0.195082 5.2986
rCollar  1.7976e-016 -5.12864e-014 1.62755e-015
rShldr  28.1841 22.9023 16.3148
rForeArm  1.03376 -0.418722 98.6947
rHand  1.87088 -11.3276 -11.6769
lThigh  -6.82667 -2.04897 -0.699405
lShin  -14.3688 0.645802 -5.4357
lFoot  5.08358 -0.466875 -2.22933
rThigh  8.97561 -6.87908 -1.36374
rShin  0.145583 4.54248 2.52371
rFoot  -2.94493 -0.130143 -4.45973
585
root  4.05368 37.0397 -1.34931 171.96 0.263 91.0985
abdomen  -0.663139 -8.33833 2.58674
chest  0.818666 3.17124 -7.09049
neckDummy  9.09964e-021 0 8.72668e-016
neck  8.34111 8.56931 1.43592
head  5.57126 -0.174862 -6.87937
figureHair  0 1.51661e-021 -9.5315e-016
lCollar  -5.15695e-016 -6.42944e-016 -7.59357e-014
lShldr  -14.8933 7.97013 -41.8717
lForeArm  30.4822 -75.1339 1.03394
lHand  0.254698 0.195082 5.2986
rCollar  1.7976e-016 -5.12864e-014 1.62755e-015
rShldr  27.4035 23.6703 25.1222
rForeArm  -0.221834 -0.400111 97.8003
rHand  1.74845 -9.79233 -12.6484
lThigh  -6.81938 -1.58673 -0.838029
lShin  -16.1899 0.671613 -5.64643
lFoot  5.06161 -0.480424 -1.87838
rThigh  8.88738 -7.41003 -1.3655
rShin  -1.5535 4.86268 2.19818
rFoot  -3.00281 -0.175723 -4.92156
586
root  4.12383 37.0306 -1.24412 170.003 0.316071 91.0107
abdomen  -0.898413 -10.3622 2.29977
chest  1.12615 5.45821 -7.06007
neckDummy  9.09964e-021 0 8.72668e-016
neck  8.8536 7.85776 1.51287
head  6.26493 0.926595 -7.25333
figureHair  0 1.51661e-021 -9.5315e-016
lCollar  -5.15695e-016 -6.42944e-016 -7.59357e-014
lShldr  -13.2305 7.27351 -46.5134
lForeArm  17.6425 -79.9104 15.0798
lHand  0.254698 0.195082 5.2986
rCollar  1.7976e-016 -5.12864e-014 1.62755e-015
rShldr  25.5122 27.0134 33.6657
rForeArm  -0.917727 -0.327933 94.459
rHand  1.39694 -7.19935 -13.223
lThigh  -6.85938 -1.31145 -0.944927
lShin  -18.0878 0.702809 -5.92297
lFoot  5.06838 -0.497197 -1.51736
rThigh  8.77184 -8.12539 -1.33959
rShin  -3.32814 5.11701 1.88935
rFoot  -3.03637 -0.225613 -5.39684
587
root  4.18331 37.0191 -1.17142 168.216 0.394363 91.0123
abdomen  -1.22746 -11.7456 2.14013
chest  1.19968 7.25862 -7.02423
neckDummy  9.09964e-021 0 8.72668e-016
neck  9.54548 7.45699 1.78628
head  7.01728 1.5949 -7.67052
figureHair  0 1.51661e-021 -9.5315e-016
lCollar  -5.15695e-016 -6.42944e-016 -7.59357e-014
lShldr  -11.1602 6.47893 -51.289
lForeArm  19.0224 -83.1897 15.1627
lHand  0.254698 0.195082 5.2986
rCollar  1.7976e-016 -5.12864e-014 1.62755e-015
rShldr  22.8367 33.2981 41.1403
rForeArm  -2.624 -0.199432 88.6307
rHand  1.05351 -5.22742 -12.801
lThigh  -7.01867 -1.17311 -0.961522
lShin  -19.6926 0.783114 -6.27888
lFoot  5.12533 -0.517646 -1.19104
rThigh  8.65056 -8.82218 -1.28708
rShin  -4.94445 5.28792 1.62633
rFoot  -3.02769 -0.268938 -5.78587
588
root  4.22562 37.0075 -1.13194 166.743 0.462341 90.9821
abdomen  -1.57517 -12.0502 1.92772
chest  0.946491 7.85882 -7.00649
neckDummy  9.09964e-021 0 8.72668e-016
neck  10.6004 7.86056 2.26013
head  7.87105 1.8472 -7.80457
figureHair  0 1.51661e-021 -9.5315e-016
lCollar  -5.15695e-016 -6.42944e-016 -7.59357e-014
lShldr  -9.41575 5.60963 -55.9418
lForeArm  19.5201 -83.0177 15.7152
lHand  0.254698 0.195082 5.2986
rCollar  1.7976e-016 -5.12864e-014 1.62755e-015
rShldr  19.9856 41.2022 47.0185
rForeArm  -4.45033 0.00574215 79.4386
rHand  0.908771 -4.88444 -11.3686
lThigh  -7.18332 -0.997948 -0.94139
lShin  -20.9645 0.823319 -6.59049
lFoot  5.19549 -0.53647 -0.93614
rThigh  8.56519 -9.26734 -1.22831
rShin  -6.29553 5.30467 1.45594
rFoot  -2.99985 -0.302244 -6.06469
589
root  4.25921 37 -1.1247 165.805 0.536636 90.9734
abdomen  -1.99459 -11.0418 1.56025
chest  0.25663 7.02528 -6.78468
neckDummy  9.09964e-021 0 8.72668e-016
neck  12.015 8.76083 2.80326
head  8.91798 2.00211 -7.70544
figureHair  0 1.51661e-021 -9.5315e-016
lCollar  -5.15695e-016 -6.42944e-016 -7.59357e-014
lShldr  -8.42931 4.92336 -60.1512
lForeArm  22.4708 -80.9193 13.1951
lHand  0.254698 0.195082 5.2986
rCollar  1.7976e-016 -5.12864e-014 1.62755e-015
rShldr  17.4238 49.4954 51.0184
rForeArm  -5.65749 0.295764 66.2419
rHand  0.875327 -5.99669 -8.70586
lThigh  -7.22972 -0.871788 -0.955064
lShin  -21.8332 0.777377 -6.75197
lFoot  5.24835 -0.547248 -0.823569
rThigh  8.50448 -9.53475 -1.18465
rShin  -7.14203 5.26461 1.36152
rFoot  -2.96032 -0.319592 -6.19514
590
root  4.29462 36.9976 -1.16347 165.65 0.611923 91.0381
abdomen  -2.45985 -8.54815 1.13023
chest  -0.867928 4.63439 -6.38417
neckDummy  9.09964e-021 0 8.72668e-016
neck  13.3552 9.67777 3.36149
head  9.87298 2.01184 -7.7622
figureHair  0 1.51661e-021 -9.5315e-016
lCollar  -5.15695e-016 -6.42944e-016 -7.59357e-014
lShldr  -7.89769 4.33247 -63.5595
lForeArm  26.2008 -78.1575 9.44906
lHand  0.254698 0.195082 5.2986
rCollar  1.7976e-016 -5.12864e-014 1.62755e-015
rShldr  15.4216 57.9315 52.1082
rForeArm  -6.60506 0.640238 49.3731
rHand  0.757468 -7.75619 -4.92126
lThigh  -7.23932 -0.978115 -0.930267
lShin  -21.9726 0.772571 -6.77332
lFoot  5.24136 -0.544046 -0.878275
rThigh  8.44915 -9.73787 -1.13799
rShin  -7.2143 5.32916 1.33099
rFoot  -2.98542 -0.310056 -6.13921
591
root  4.32812 37 -1.24416 166.421 0.606827 91.1453
abdomen  -2.90296 -4.81414 0.540429
chest  -2.322 0.806636 -5.85683
neckDummy  9.09964e-021 0 8.72668e-016
neck  14.3562 10.6141 3.87593
head  10.4876 1.77222 -7.96864
figureHair  0 1.51661e-021 -9.5315e-016
lCollar  -5.15695e-016 -6.42944e-016 -7.59357e-014
lShldr  -7.22449 3.66239 -65.903
lForeArm  29.297 -74.0421 5.24962
lHand  0.254698 0.195082 5.2986
rCollar  1.7976e-016 -5.12864e-014 1.62755e-015
rShldr  11.9492 66.132 46.3235
rForeArm  -5.67983 0.903228 31.6069
rHand  0.51575 -9.63362 -0.985318
lThigh  -7.29468 -1.34689 -0.784636
lShin  -21.1684 0.960478 -6.64829
lFoot  5.12677 -0.525466 -1.02402
rThigh  8.43161 -9.71477 -1.07171
rShin  -6.41574 5.39413 1.43647
rFoot  -3.11549 -0.281029 -5.95001
592
root  4.35863 37.007 -1.34391 168.063 0.506149 91.3226
abdomen  -3.52503 -0.345837 -0.654754
chest  -4.1922 -3.88851 -4.70106
neckDummy  9.09964e-021 0 8.72668e-016
neck  15.1596 11.3252 4.20011
head  11.0015 1.67136 -7.98608
figureHair  0 1.51661e-021 -9.5315e-016
lCollar  -5.15695e-016 -6.42944e-016 -7.59357e-014
lShldr  -6.49004 3.4591 -67.3029
lForeArm  29.6491 -70.561 4.45305
lHand  0.254698 0.195082 5.2986
rCollar  1.7976e-016 -5.12864e-014 1.62755e-015
rShldr  0.647691 72.1397 25.0188
rForeArm  -2.44219 1.50873 17.6575
rHand  0.256027 -11.1522 1.95316
lThigh  -7.35002 -2.08782 -0.560827
lShin  -19.5397 1.4632 -6.35198
lFoot  4.94577 -0.49995 -1.18156
rThigh  8.44234 -9.41178 -0.996515
rShin  -4.78604 5.27979 1.69242
rFoot  -3.21133 -0.2455 -5.69215
593
root  4.40122 37.015 -1.45255 170.301 0.409164 91.7153
abdomen  -4.70164 4.59189 -2.68213
chest  -6.77863 -8.92163 -2.58357
neckDummy  9.09964e-021 0 8.72668e-016
neck  16.01 11.2337 4.17916
head  11.8617 2.33016 -7.56056
figureHair  0 1.51661e-021 -9.5315e-016
lCollar  -5.15695e-016 -6.42944e-016 -7.59357e-014
lShldr  -6.54236 4.42157 -68.0774
lForeArm  32.7866 -68.6611 3.96889
lHand  0.254698 0.195082 5.2986
rCollar  1.7976e-016 -5.12864e-014 1.62755e-015
rShldr  -16.3208 72.0124 -11.4779
rForeArm  -1.11753 3.45136 10.9985
rHand  0.112518 -11.3077 3.20412
lThigh  -7.39821 -3.4134 -0.322232
lShin  -17.3791 2.35356 -5.9664
lFoot  4.79389 -0.477583 -1.34589
rThigh  8.44233 -9.18997 -0.934872
rShin  -2.52576 5.14189 2.01219
rFoot  -3.19559 -0.207562 -5.3403
594
root  4.4626 37.0189 -1.56127 172.56 0.32695 92.2474
abdomen  -6.60494 9.47726 -5.32195
chest  -10.074 -13.588 0.101436
neckDummy  9.09964e-021 0 8.72668e-016
neck  16.9787 10.0209 3.17412
head  13.359 4.3132 -6.17493
figureHair  0 1.51661e-021 -9.5315e-016
lCollar  -5.15695e-016 -6.42944e-016 -7.59357e-014
lShldr  -7.96842 6.67156 -68.3234
lForeArm  36.2949 -68.0124 3.80966
lHand  0.254698 0.195082 5.2986
rCollar  1.7976e-016 -5.12864e-014 1.62755e-015
rShldr  -29.8825 64.5598 -38.3746
rForeArm  6.15064 1.97776 12.5325
rHand  0.0299932 -9.27959 3.70883
lThigh  -7.45443 -5.02387 -0.103426
lShin  -15.2021 3.3147 -5.62235
lFoot  4.6649 -0.45626 -1.55161
rThigh  8.47848 -9.29276 -0.913857
rShin  -0.20901 5.19271 2.34909
rFoot  -3.23061 -0.162002 -4.94386
595
root  4.52882 37.0228 -1.64965 174.079 0.259842 92.643
abdomen  -9.04573 13.4088 -8.25049
chest  -13.5404 -16.7504 2.89948
neckDummy  9.09964e-021 0 8.72668e-016
neck  17.8711 7.41615 -0.0597005
head  15.6064 8.04277 -3.26513
figureHair  0 1.51661e-021 -9.5315e-016
lCollar  -5.15695e-016 -6.42944e-016 -7.59357e-014
lShldr  -10.5298 10.1253 -68.0957
lForeArm  36.6049 -67.4767 3.67494
lHand  0.254698 0.195082 5.2986
rCollar  1.7976e-016 -5.12864e-014 1.62755e-015
rShldr  -26.3834 55.4179 -48.0993
rForeArm  11.5882 1.03679 19.2782
rHand  0.0166317 -6.65674 3.51001
lThigh  -7.49458 -6.01914 0.0657075
lShin  -13.722 3.6686 -5.42668
lFoot  4.49687 -0.428946 -1.82478
rThigh  8.51133 -9.44893 -0.884716
rShin  1.35579 5.23091 2.61228
rFoot  -3.37788 -0.125803 -4.72835
596
root  4.58962 37.0309 -1.70826 174.177 0.214325 92.7128
abdomen  -11.4588 16.1972 -11.0321
chest  -16.4683 -18.1277 5.47356
neckDummy  9.09964e-021 0 8.72668e-016
neck  18.721 3.65653 -5.61806
head  18.5159 12.9055 0.662775
figureHair  0 1.51661e-021 -9.5315e-016
lCollar  -5.15695e-016 -6.42944e-016 -7.59357e-014
lShldr  -13.521 14.4927 -67.7315
lForeArm  35.2823 -66.6641 3.47685
lHand  0.254698 0.195082 5.2986
rCollar  1.7976e-016 -5.12864e-014 1.62755e-015
rShldr  -14.0511 47.5539 -49.6029
rForeArm  18.1348 0.995568 27.8679
rHand  0.0873088 -6.38071 2.54107
lThigh  -7.60103 -5.95922 0.248414
lShin  -13.4728 3.28066 -5.46902
lFoot  4.32198 -0.40253 -2.06589
rThigh  8.31081 -9.47874 -0.685958
rShin  1.64195 5.02246 2.60255
rFoot  -3.41129 -0.133907 -4.82904
597
root  4.64204 37.0344 -1.73344 172.509 0.178635 92.6415
abdomen  -13.0875 18.2444 -12.9346
chest  -18.258 -18.5185 7.24419
neckDummy  9.09964e-021 0 8.72668e-016
neck  19.9315 0.145559 -11.4525
head  21.6248 17.0622 4.18871
figureHair  0 1.51661e-021 -9.5315e-016
lCollar  -5.15695e-016 -6.42944e-016 -7.59357e-014
lShldr  -16.0837 18.9476 -67.4496
lForeArm  35.1134 -66.1256 3.35263
lHand  0.254698 0.195082 5.2986
rCollar  1.7976e-016 -5.12864e-014 1.62755e-015
rShldr  -0.37966 40.584 -46.2676
rForeArm  26.8411 0.84968 37.5904
rHand  0.170195 -8.35044 2.06356
lThigh  -7.91277 -5.31586 0.549234
lShin  -14.6791 2.79582 -5.77283
lFoot  4.19494 -0.39315 -2.01861
rThigh  7.78764 -9.70981 -0.236459
rShin  0.545718 4.75005 2.26028
rFoot  -3.18431 -0.187897 -5.14938
